Coordinates
version=1
nRows=7
nColumns=32
inDegrees=yes

Units are S.I. units (second, meters, Newtons, ...)
If the header above contains a line with 'inDegrees', this indicates whether rotational values are in degrees (yes) or radians (no).

endheader
time	pelvis_tilt	pelvis_list	pelvis_rotation	pelvis_tx	pelvis_ty	pelvis_tz	hip_flexion_r	hip_adduction_r	hip_rotation_r	knee_angle_r	knee_adduction_r	med_cond_adduction_r	lat_cond_adduction_r	patella_r_constrained_knee_angle	ankle_angle_r	subtalar_angle_r	mtp_angle_r	hip_flexion_l	hip_adduction_l	hip_rotation_l	knee_angle_l	knee_adduction_l	med_cond_adduction_l	lat_cond_adduction_l	patella_l_constrained_knee_angle	ankle_angle_l	subtalar_angle_l	mtp_angle_l	lumbar_extension	lumbar_bending	lumbar_rotation
      0.90416667	    -21.19884888	     -3.32938491	    -87.27532160	      0.53023984	      1.12308600	     -0.76588978	      6.11822051	     20.79407118	      8.44665514	    -16.64910085	      0.00000000	      0.00000000	     -0.00000000	     -0.29058163	    -21.14570821	     -4.33779783	      0.00000000	     -5.20826206	    -22.91793091	      0.78723220	     -8.65617297	      0.00000000	      0.00000000	     -0.00000000	     -0.15107872	     -0.74928810	      6.80033157	      0.00000000	     -0.00000000	      0.00000000	      0.00000000
      0.90833333	    -20.86894862	     -2.68323674	    -87.40818137	      0.52835419	      1.12147115	     -0.76062231	      7.16134556	     20.63951874	     10.30308004	    -15.75963242	      0.00000000	      0.00000000	     -0.00000000	     -0.27505747	    -21.77768573	     -6.91602915	      0.00000000	     -4.93773104	    -22.60964579	      0.69051358	     -8.65159069	      0.00000000	      0.00000000	     -0.00000000	     -0.15099874	     -0.50346993	      6.75330586	      0.00000000	     -0.00000000	     -0.00000000	      0.00000000
      0.91250000	    -20.43733531	     -2.05595450	    -87.57094987	      0.52649874	      1.11977812	     -0.75531360	      8.16434961	     20.36446266	     12.18369000	    -14.87871245	     -0.00000000	      0.00000000	     -0.00000000	     -0.25968252	    -22.48083375	     -9.57707387	      0.00000000	     -4.72454822	    -22.17006407	      0.57554647	     -8.60725201	     -0.00000000	      0.00000000	     -0.00000000	     -0.15022489	     -0.30908856	      6.50257815	     -0.00000000	     -0.00000000	     -0.00000000	      0.00000000
      0.91666667	    -19.98518535	     -1.49633061	    -87.67136076	      0.52477367	      1.11800937	     -0.74995477	      9.09911411	     20.03333615	     13.93109707	    -13.99899850	     -0.00000000	      0.00000000	     -0.00000000	     -0.24432862	    -23.24670486	    -12.07899630	      0.00000000	     -4.52526394	    -21.72776100	      0.48615589	     -8.62312598	      0.00000000	      0.00000000	     -0.00000000	     -0.15050194	     -0.02471559	      6.39947777	      0.00000000	      0.00000000	      0.00000000	     -0.00000000
      0.92083333	    -19.51057815	     -0.94790233	    -87.81908510	      0.52306637	      1.11615880	     -0.74450475	     10.01924026	     19.66181645	     15.66665968	    -13.15626651	      0.00000000	      0.00000000	     -0.00000000	     -0.22962017	    -24.06260636	    -14.53625432	      0.00000000	     -4.38816401	    -21.24927649	      0.32668293	     -8.59970422	     -0.00000000	     -0.00000000	      0.00000000	     -0.15009315	      0.29067822	      6.26071345	     -0.00000000	      0.00000000	      0.00000000	     -0.00000000
      0.92500000	    -18.91105318	     -0.41370194	    -87.99677935	      0.52147036	      1.11423323	     -0.73892231	     10.91948374	     19.13517941	     17.30448881	    -12.42455099	      0.00000000	      0.00000000	     -0.00000000	     -0.21684932	    -24.63053976	    -16.65677907	     -0.00000000	     -4.28674781	    -20.62361585	      0.16734548	     -8.56906298	     -0.00000000	      0.00000000	     -0.00000000	     -0.14955836	      0.53670288	      6.09536634	     -0.00000000	      0.00000000	      0.00000000	     -0.00000000
      0.92916667	    -18.32240291	      0.11731074	    -87.97570450	      0.52026734	      1.11208314	     -0.73355267	     11.89368008	     18.52699026	     18.66721375	    -11.70438911	     -0.00000000	      0.00000000	     -0.00000000	     -0.20428013	    -24.96921605	    -18.11870338	     -0.00000000	     -4.07265415	    -20.00302216	      0.35168705	     -8.56413509	      0.00000000	      0.00000000	     -0.00000000	     -0.14947235	      0.82692051	      5.76896949	      0.00000000	      0.00000000	      0.00000000	     -0.00000000
